<svg xmlns="http://www.w3.org/2000/svg" viewBox="0 0 64 64" role="img" aria-label="DEUCE Pages">
  <defs>
    <linearGradient id="edge" x1="10" y1="8" x2="54" y2="56" gradientUnits="userSpaceOnUse">
      <stop stop-color="#7CFFB2"/>
      <stop offset=".48" stop-color="#24D6FF"/>
      <stop offset="1" stop-color="#FF4D8D"/>
    </linearGradient>
    <filter id="glow" x="-35%" y="-35%" width="170%" height="170%">
      <feGaussianBlur stdDeviation="2.4" result="blur"/>
      <feColorMatrix in="blur" values="0 0 0 0 0.486 0 0 0 0 1 0 0 0 0 0.698 0 0 0 .8 0"/>
      <feMerge>
        <feMergeNode/>
        <feMergeNode in="SourceGraphic"/>
      </feMerge>
    </filter>
  </defs>
  <rect width="64" height="64" rx="14" fill="#050607"/>
  <path d="M32 6 53 15v16c0 14.2-8.9 23.2-21 28-12.1-4.8-21-13.8-21-28V15L32 6Z" fill="#0D1112" stroke="url(#edge)" stroke-width="3"/>
  <path d="M18 20h11c10.5 0 17 4.8 17 12s-6.5 12-17 12H18V20Zm10 7v10h2.3c4.5 0 7.3-1.7 7.3-5s-2.8-5-7.3-5H28Z" fill="#7CFFB2" filter="url(#glow)"/>
  <path d="M14 48h12M38 16h12M47 41h6M11 31h9" stroke="#24D6FF" stroke-width="2" stroke-linecap="round" opacity=".9"/>
  <circle cx="26" cy="48" r="2" fill="#24D6FF"/>
  <circle cx="38" cy="16" r="2" fill="#24D6FF"/>
  <circle cx="47" cy="41" r="2" fill="#FF4D8D"/>
</svg>
